<svg width="187" height="48" viewBox="0 0 187 48" fill="none" xmlns="http://www.w3.org/2000/svg">
<g clip-path="url(#clip0_994_27726)">
<path d="M117.9 28.2599C117.9 24.5549 115.335 22.3049 110.73 22.3049C108.195 22.3049 106.32 22.8449 105.18 23.3849C104.535 24.2999 104.235 25.3649 103.83 27.0299C105.555 26.3549 107.235 25.8149 109.785 25.8149C111.81 25.8149 113.43 26.6849 113.43 29.0549C113.43 31.6199 111.84 33.4949 103.155 38.5199C103.155 39.0599 103.185 40.1399 103.425 41.4899H117.75C118.155 40.2749 118.425 39.1949 118.56 37.9799H106.365C112.455 35.8949 117.885 33.7199 117.885 28.2449L117.9 28.2599ZM154.41 28.2599C154.41 24.5549 151.845 22.3049 147.24 22.3049C144.705 22.3049 142.83 22.8449 141.69 23.3849C141.045 24.2999 140.745 25.3649 140.34 27.0299C142.065 26.3549 143.745 25.8149 146.295 25.8149C148.32 25.8149 149.94 26.6849 149.94 29.0549C149.94 31.6199 148.35 33.4949 139.665 38.5199C139.665 39.0599 139.695 40.1399 139.935 41.4899H154.26C154.665 40.2749 154.935 39.1949 155.07 37.9799H142.875C148.965 35.8949 154.395 33.7199 154.395 28.2449L154.41 28.2599ZM129.6 29.6849C128.655 30.3599 127.845 31.1549 127.125 32.0549C127.845 32.9549 128.655 33.7349 129.6 34.4099C130.545 33.7349 131.355 32.9549 132.075 32.0549C131.355 31.1549 130.545 30.3599 129.6 29.6849ZM129.54 22.3199C124.125 22.3199 120.075 25.5599 120.075 30.8399C120.075 37.7399 126.705 41.7899 129.54 41.7899C132.375 41.7899 139.005 37.7399 139.005 30.8399C139.005 25.5599 134.955 22.3199 129.54 22.3199ZM129.54 40.1699C128.325 40.1699 124.53 37.7099 124.53 31.1099C124.53 27.8699 126.42 25.8299 129.54 25.8299C132.66 25.8299 134.535 27.8549 134.535 31.1099C134.535 37.7099 130.755 40.1699 129.54 40.1699ZM28.3055 41.7899L21.1805 37.9949C25.2155 36.5249 28.1705 33.6449 28.1705 29.5499C28.1705 24.0299 24.0305 21.2549 18.7055 21.2549C13.8155 21.2549 9.10547 24.3899 9.10547 30.4499C9.10547 35.5649 13.0055 38.6099 17.2655 40.8599L31.0055 48.0299C31.0055 44.8649 30.6305 43.0499 28.3055 41.8049V41.7899ZM20.0105 37.3649L19.7855 37.2449C17.1905 35.8649 13.6955 33.7499 13.6955 29.9099C13.6955 26.3999 15.9605 24.7499 18.7055 24.7499C21.7355 24.7499 23.5655 26.8799 23.5655 30.6149C23.5655 33.1949 22.1555 35.4599 19.9955 37.3649H20.0105ZM171.18 28.2749C171.18 24.5699 168.615 22.3199 164.01 22.3199C161.475 22.3199 159.6 22.8599 158.475 23.3999C157.83 24.3149 157.53 25.3799 157.125 27.0449C158.85 26.3699 160.53 25.8299 163.08 25.8299C165.105 25.8299 166.725 26.6999 166.725 29.0699C166.725 31.6349 165.135 33.5099 156.45 38.5349C156.45 39.0749 156.48 40.1549 156.72 41.5049H171.045C171.45 40.2899 171.72 39.2099 171.855 37.9949H159.66C165.75 35.9099 171.18 33.7349 171.18 28.2599V28.2749ZM30.1805 35.1599C30.1805 39.6449 31.8005 41.7899 33.9605 41.7899C36.6155 41.7899 38.7305 39.4499 40.7255 34.4399V41.5199H45.0455V26.6549C43.0955 26.4899 41.3105 26.3849 39.3605 26.3849C34.0055 26.3849 30.1655 28.6049 30.1655 35.1749L30.1805 35.1599ZM36.2705 37.9949C35.1305 37.9949 34.6505 36.4799 34.6505 32.3099C34.6505 30.1499 35.7005 29.6099 38.7005 29.6099C39.4805 29.6099 40.1105 29.6099 40.7255 29.6249C39.7655 32.5649 38.4905 37.9949 36.2705 37.9949ZM95.8655 33.5099V32.0549C95.8655 30.1649 95.7305 28.5449 95.4605 26.6399H91.2755C91.4105 28.5299 91.5455 30.1499 91.5455 32.0549V41.5199H95.8655C95.8655 36.2249 97.5755 30.1949 102.09 30.8399C102.09 29.8949 101.955 27.7349 101.685 26.3849C98.3855 26.6699 96.7805 29.5799 95.8655 33.5249V33.5099ZM73.1555 35.1599C73.1555 36.2549 73.2605 37.1999 73.4555 37.9949H57.5855C55.4705 37.9949 54.1205 37.5149 54.1205 35.5649V30.1649H59.1155C59.5205 28.9499 59.7905 27.8399 59.9255 26.6549H54.1205C54.1355 24.9899 54.2705 23.5049 54.3905 21.7949C52.5005 22.4699 51.0155 23.2499 49.8005 24.5999V26.6549H47.2355C47.0255 28.1099 47.0255 29.2199 46.9655 30.1649H49.8005V35.8499C49.8005 39.8249 52.2005 41.5349 55.5005 41.5349H77.0855C79.7255 41.5349 81.7655 39.3749 83.7155 34.4699V41.5349H88.0355V26.6699C86.0855 26.5049 84.3005 26.3999 82.3505 26.3999C76.9955 26.3999 73.1555 28.6199 73.1555 35.1899V35.1599ZM79.2455 37.9949C78.1055 37.9949 77.6255 36.4799 77.6255 32.3099C77.6255 30.1499 78.6755 29.6099 81.6755 29.6099C82.4555 29.6099 83.0855 29.6099 83.7005 29.6249C82.7405 32.5649 81.4655 37.9949 79.2455 37.9949Z" fill="white"/>
<path d="M154.8 15.9449C154.185 16.0949 153.51 16.2449 152.775 16.3799C152.04 16.5149 151.125 16.5899 150.045 16.5899C148.965 16.5899 147.885 16.4399 146.79 16.1549C145.695 15.8699 144.705 15.3899 143.82 14.7599C142.935 14.1149 142.215 13.2749 141.66 12.2249C141.105 11.1749 140.82 9.89989 140.82 8.36989C140.82 6.97489 141.045 5.75989 141.51 4.70989C141.975 3.65989 142.605 2.78989 143.43 2.08489C144.255 1.37989 145.215 0.869893 146.34 0.524893C147.465 0.179893 148.68 0.0148926 150 0.0148926C150.825 0.0148926 151.635 0.0898926 152.415 0.254893C153.195 0.419893 153.975 0.614893 154.755 0.839893L154.41 4.30489C153.72 3.92989 153.03 3.64489 152.355 3.44989C151.68 3.26989 150.96 3.17989 150.225 3.17989C149.49 3.17989 148.77 3.31489 148.155 3.56989C147.54 3.82489 147.015 4.18489 146.58 4.64989C146.145 5.11489 145.8 5.65489 145.575 6.29989C145.335 6.92989 145.215 7.63489 145.215 8.38489C145.215 9.13489 145.35 9.86989 145.62 10.4999C145.89 11.1299 146.25 11.6549 146.715 12.0899C147.18 12.5249 147.75 12.8549 148.41 13.0949C149.07 13.3199 149.79 13.4399 150.57 13.4399C151.275 13.4399 151.965 13.3649 152.655 13.1999C153.345 13.0349 153.975 12.8399 154.56 12.6149L154.77 15.9749L154.8 15.9449Z" fill="white"/>
<path d="M170.19 10.2298C170.19 11.3398 170.025 12.2848 169.68 13.0798C169.35 13.8748 168.87 14.5348 168.24 15.0598C167.625 15.5848 166.875 15.9748 166.005 16.2148C165.135 16.4698 164.19 16.5898 163.14 16.5898C162.09 16.5898 161.145 16.4698 160.275 16.2148C159.405 15.9598 158.67 15.5698 158.04 15.0598C157.425 14.5348 156.945 13.8748 156.6 13.0798C156.27 12.2848 156.09 11.3398 156.09 10.2298V0.269775H160.365V9.50978C160.365 10.0498 160.41 10.5448 160.485 11.0098C160.575 11.4748 160.71 11.8948 160.92 12.2548C161.13 12.6148 161.4 12.8998 161.76 13.1098C162.105 13.3198 162.57 13.4248 163.11 13.4248C163.65 13.4248 164.115 13.3198 164.46 13.1098C164.805 12.8998 165.09 12.6148 165.3 12.2548C165.51 11.8948 165.645 11.4748 165.735 11.0098C165.825 10.5448 165.855 10.0348 165.855 9.50978V0.269775H170.13V10.2298H170.19Z" fill="white"/>
<path d="M172.32 0.269775H177.42C179.88 0.269775 181.695 0.689775 182.865 1.54478C184.035 2.39978 184.605 3.71977 184.605 5.53477C184.605 7.15477 184.05 8.42977 182.925 9.32977C181.8 10.2448 180.24 10.6948 178.245 10.6948H176.595V16.3048H172.32V0.269775ZM176.595 7.66478H177.705C178.065 7.66478 178.41 7.63478 178.74 7.55977C179.055 7.48478 179.34 7.36478 179.58 7.19978C179.82 7.01978 180 6.79478 180.15 6.50978C180.285 6.22478 180.36 5.87978 180.36 5.45977C180.36 5.03977 180.285 4.69478 180.15 4.42478C180.015 4.15478 179.82 3.92977 179.58 3.76478C179.34 3.59978 179.07 3.47977 178.74 3.40477C178.425 3.32978 178.08 3.29978 177.705 3.29978H176.595V7.66478Z" fill="white"/>
<path d="M51.7197 0.27002H56.0847L58.1547 12.585H58.1997L60.3597 0.27002H65.7747L68.0247 12.585H68.0697L70.1697 0.27002H74.3247L70.7397 16.305H65.2497L62.9697 3.99002H62.9247L60.8097 16.305H55.2747L51.7197 0.27002Z" fill="white"/>
<path d="M74.4893 8.295C74.4893 7.005 74.6543 5.85 74.9993 4.83C75.3443 3.81 75.8543 2.94 76.5293 2.22C77.2043 1.5 78.0443 0.96 79.0493 0.57C80.0543 0.18 81.2093 0 82.5293 0C83.8493 0 85.0043 0.195 86.0093 0.57C87.0143 0.96 87.8543 1.5 88.5293 2.22C89.2043 2.925 89.7143 3.795 90.0593 4.83C90.4043 5.85 90.5693 7.02 90.5693 8.295C90.5693 9.57 90.4043 10.71 90.0593 11.745C89.7143 12.765 89.2043 13.65 88.5143 14.37C87.8393 15.09 86.9843 15.645 85.9943 16.02C84.9893 16.41 83.8343 16.59 82.5443 16.59C81.2543 16.59 80.0693 16.395 79.0793 16.02C78.0893 15.645 77.2493 15.09 76.5593 14.37C75.8843 13.65 75.3593 12.78 75.0143 11.745C74.6693 10.725 74.5043 9.57 74.5043 8.295H74.4893ZM78.8993 8.295C78.8993 8.955 78.9743 9.6 79.1093 10.215C79.2443 10.83 79.4543 11.385 79.7543 11.865C80.0393 12.345 80.4143 12.72 80.8793 13.005C81.3443 13.29 81.8843 13.425 82.5293 13.425C83.1743 13.425 83.7293 13.29 84.1793 13.005C84.6443 12.72 85.0193 12.345 85.3043 11.865C85.5893 11.385 85.8143 10.845 85.9493 10.215C86.0843 9.6 86.1593 8.955 86.1593 8.295C86.1593 7.635 86.0843 6.945 85.9493 6.33C85.8143 5.715 85.6043 5.16 85.3043 4.695C85.0193 4.23 84.6443 3.855 84.1793 3.585C83.7143 3.315 83.1743 3.165 82.5293 3.165C81.8843 3.165 81.3293 3.3 80.8793 3.585C80.4143 3.855 80.0393 4.23 79.7543 4.695C79.4693 5.16 79.2443 5.7 79.1093 6.33C78.9743 6.945 78.8993 7.605 78.8993 8.295Z" fill="white"/>
<path d="M92.1749 0.27002H99.7949C100.5 0.27002 101.16 0.34502 101.79 0.51002C102.42 0.67502 102.975 0.915019 103.44 1.26002C103.92 1.59002 104.28 2.02502 104.55 2.52002C104.82 3.03002 104.955 3.63002 104.955 4.30502C104.955 5.37002 104.7 6.25502 104.19 6.94502C103.68 7.63502 102.915 8.10002 101.865 8.34002V8.38502C102.195 8.47502 102.48 8.62502 102.675 8.82002C102.885 9.01502 103.065 9.27002 103.215 9.57002C103.365 9.87002 103.515 10.215 103.635 10.605C103.77 10.995 103.935 11.43 104.13 11.925L105.69 16.29H101.235L100.32 13.395C100.11 12.705 99.8999 12.135 99.7049 11.7C99.5099 11.25 99.2999 10.905 99.0899 10.65C98.8649 10.395 98.6099 10.215 98.3249 10.11C98.0399 10.005 97.6949 9.96002 97.3049 9.96002H96.4049V16.305H92.1299V0.27002H92.1749ZM96.4499 6.93002H97.5749C97.9049 6.93002 98.2649 6.93002 98.6399 6.90002C99.0149 6.87002 99.3449 6.81002 99.6449 6.67502C99.9449 6.55502 100.185 6.37502 100.395 6.12002C100.59 5.88002 100.695 5.52002 100.695 5.07002C100.695 4.71002 100.605 4.39502 100.425 4.17002C100.245 3.93002 100.02 3.75002 99.7349 3.63002C99.4499 3.51002 99.1199 3.42002 98.7449 3.37502C98.3699 3.33002 97.9799 3.30002 97.5599 3.30002H96.4349V6.93002H96.4499Z" fill="white"/>
<path d="M107.564 0.27002H111.839V13.14H118.454V16.305H107.564V0.27002Z" fill="white"/>
<path d="M119.955 0.27002H125.79C127.185 0.27002 128.46 0.39002 129.63 0.64502C130.8 0.885019 131.79 1.32002 132.63 1.92002C133.47 2.52002 134.115 3.34502 134.58 4.36502C135.045 5.38502 135.285 6.67502 135.285 8.22002C135.285 9.76502 135.045 10.98 134.58 12.015C134.1 13.035 133.44 13.875 132.6 14.505C131.76 15.135 130.755 15.6 129.585 15.885C128.415 16.17 127.155 16.305 125.79 16.305H119.955V0.27002ZM124.23 13.14H125.88C127.485 13.14 128.715 12.735 129.585 11.925C130.44 11.115 130.875 9.90002 130.875 8.29502C130.875 6.69002 130.44 5.47502 129.57 4.66502C128.7 3.85502 127.47 3.45002 125.895 3.45002H124.245V13.14H124.23Z" fill="white"/>
<path fill-rule="evenodd" clip-rule="evenodd" d="M0 0.27002V16.305H4.995V10.515H8.58L9.855 7.02002H4.995V3.76502H11.04L12.315 0.27002H0Z" fill="white"/>
<path d="M18.8397 0.27002H13.8447V16.305H18.8397V0.27002Z" fill="white"/>
<path fill-rule="evenodd" clip-rule="evenodd" d="M22.2598 0.27002V16.305H27.2548V10.515H30.8548L32.1298 7.02002H27.2548V3.76502H33.2998L34.5748 0.27002H22.2598Z" fill="white"/>
<path fill-rule="evenodd" clip-rule="evenodd" d="M48.8701 16.305H43.8301L43.1851 14.145H37.5451L36.9151 16.305H31.9951L37.8451 0.27002H43.0351L48.8701 16.305ZM42.3451 11.07L40.3501 4.39502L38.4151 11.07H42.3451Z" fill="white"/>
<path d="M175.155 23.3849H173.19V22.3049H178.29V23.3849H176.325V28.6949H175.155V23.3849ZM179.64 22.3049H181.455L183.135 26.6249L184.785 22.3049H186.6V28.6949H185.43V23.8199H185.4L183.6 28.6949H182.655L180.855 23.8199H180.825V28.6949H179.655V22.3049H179.64Z" fill="white"/>
</g>
<defs>
<clipPath id="clip0_994_27726">
<rect width="186.585" height="48" fill="white"/>
</clipPath>
</defs>
</svg>
